<?xml version="1.0" encoding="UTF-8" standalone="no"?>
<!-- Uploaded to: SVG Repo, www.svgrepo.com, Generator: SVG Repo Mixer Tools -->

<svg
   version="1.1"
   id="Capa_1"
   viewBox="0 0 59 59"
   xml:space="preserve"
   sodipodi:docname="sound-card.svg"
   inkscape:version="1.4.2 (ebf0e940, 2025-05-08)"
   xmlns:inkscape="http://www.inkscape.org/namespaces/inkscape"
   xmlns:sodipodi="http://sodipodi.sourceforge.net/DTD/sodipodi-0.dtd"
   xmlns="http://www.w3.org/2000/svg"
   xmlns:svg="http://www.w3.org/2000/svg"><defs
   id="defs48" /><sodipodi:namedview
   id="namedview48"
   pagecolor="#505050"
   bordercolor="#eeeeee"
   borderopacity="1"
   inkscape:showpageshadow="0"
   inkscape:pageopacity="0"
   inkscape:pagecheckerboard="0"
   inkscape:deskcolor="#505050"
   inkscape:zoom="4.99301"
   inkscape:cx="34.648438"
   inkscape:cy="27.538499"
   inkscape:window-width="1384"
   inkscape:window-height="760"
   inkscape:window-x="537"
   inkscape:window-y="155"
   inkscape:window-maximized="0"
   inkscape:current-layer="Capa_1" />
<circle
   style="fill:#1081E0;"
   cx="7"
   cy="41.5"
   r="1"
   id="circle1" />
<path
   style="fill:#56a157;fill-opacity:1"
   d="M4,12.5v32h8v4h24v-4h23v-32H4z M56,42.5c-0.552,0-1-0.448-1-1s0.448-1,1-1s1,0.448,1,1  S56.552,42.5,56,42.5z M56,16.5c-0.552,0-1-0.448-1-1s0.448-1,1-1s1,0.448,1,1S56.552,16.5,56,16.5z"
   id="path1" />
<path
   style="fill:#afb6bb;fill-opacity:1"
   d="M4,7.5H1c-0.553,0-1,0.447-1,1s0.447,1,1,1h2v41c0,0.553,0.447,1,1,1s1-0.447,1-1v-42  C5,7.947,4.553,7.5,4,7.5z"
   id="path2" />
<rect
   y="15.5"
   style="fill:#EBBA16;"
   width="3"
   height="4"
   id="rect2" />
<rect
   x="5"
   y="15.5"
   style="fill:#414141;fill-opacity:1"
   width="4"
   height="4"
   id="rect3" />
<rect
   y="22.5"
   style="fill:#DC691D;"
   width="3"
   height="4"
   id="rect4" />
<rect
   x="5"
   y="22.5"
   style="fill:#414141;fill-opacity:1"
   width="4"
   height="4"
   id="rect5" />
<rect
   y="29.5"
   style="fill:#43B05C;"
   width="3"
   height="4"
   id="rect6" />
<rect
   x="5"
   y="29.5"
   style="fill:#414141;fill-opacity:1"
   width="4"
   height="4"
   id="rect7" />
<g
   id="g14">
	<rect
   x="14"
   y="46.5"
   style="fill:#eddc6e;fill-opacity:1"
   width="2"
   height="2"
   id="rect8" />
	<rect
   x="17"
   y="46.5"
   style="fill:#eddc6e;fill-opacity:1"
   width="2"
   height="2"
   id="rect9" />
	<rect
   x="20"
   y="46.5"
   style="fill:#eddc6e;fill-opacity:1"
   width="2"
   height="2"
   id="rect10" />
	<rect
   x="23"
   y="46.5"
   style="fill:#eddc6e;fill-opacity:1"
   width="2"
   height="2"
   id="rect11" />
	<rect
   x="26"
   y="46.5"
   style="fill:#eddc6e;fill-opacity:1"
   width="2"
   height="2"
   id="rect12" />
	<rect
   x="29"
   y="46.5"
   style="fill:#eddc6e;fill-opacity:1"
   width="2"
   height="2"
   id="rect13" />
	<rect
   x="32"
   y="46.5"
   style="fill:#eddc6e;fill-opacity:1"
   width="2"
   height="2"
   id="rect14" />
</g>
<g
   id="g18">
	<rect
   x="51"
   y="15.5"
   style="fill:#356236;fill-opacity:1"
   width="2"
   height="21"
   id="rect15" />
	<rect
   x="48"
   y="15.5"
   style="fill:#356236;fill-opacity:1"
   width="2"
   height="21"
   id="rect16" />
	<rect
   x="45"
   y="15.5"
   style="fill:#356236;fill-opacity:1"
   width="2"
   height="21"
   id="rect17" />
	<rect
   x="42"
   y="15.5"
   style="fill:#356236;fill-opacity:1"
   width="2"
   height="21"
   id="rect18" />
</g>
<rect
   x="29"
   y="15.5"
   style="fill:#eddc6e;fill-opacity:1"
   width="2"
   height="3"
   id="rect19" />
<rect
   x="32"
   y="15.5"
   style="fill:#eddc6e;fill-opacity:1"
   width="2"
   height="3"
   id="rect20" />
<rect
   x="35"
   y="15.5"
   style="fill:#eddc6e;fill-opacity:1"
   width="2"
   height="3"
   id="rect21" />
<rect
   x="29"
   y="24.5"
   style="fill:#eddc6e;fill-opacity:1"
   width="2"
   height="3"
   id="rect22" />
<rect
   x="32"
   y="24.5"
   style="fill:#eddc6e;fill-opacity:1"
   width="2"
   height="3"
   id="rect23" />
<rect
   x="35"
   y="24.5"
   style="fill:#eddc6e;fill-opacity:1"
   width="2"
   height="3"
   id="rect24" />
<rect
   x="14"
   y="15.5"
   style="fill:#eddc6e;fill-opacity:1"
   width="2"
   height="3"
   id="rect25" />
<rect
   x="17"
   y="15.5"
   style="fill:#eddc6e;fill-opacity:1"
   width="2"
   height="3"
   id="rect26" />
<rect
   x="20"
   y="15.5"
   style="fill:#eddc6e;fill-opacity:1"
   width="2"
   height="3"
   id="rect27" />
<rect
   x="14"
   y="24.5"
   style="fill:#eddc6e;fill-opacity:1"
   width="2"
   height="3"
   id="rect28" />
<rect
   x="17"
   y="24.5"
   style="fill:#eddc6e;fill-opacity:1"
   width="2"
   height="3"
   id="rect29" />
<rect
   x="20"
   y="24.5"
   style="fill:#eddc6e;fill-opacity:1"
   width="2"
   height="3"
   id="rect30" />
<circle
   style="fill:#eddc6e;fill-opacity:1"
   cx="21"
   cy="29.5"
   r="1"
   id="circle30" />
<circle
   style="fill:#eddc6e;fill-opacity:1"
   cx="7"
   cy="38.5"
   r="1"
   id="circle31" />
<circle
   style="fill:#eddc6e;fill-opacity:1"
   cx="18"
   cy="29.5"
   r="1"
   id="circle32" />
<circle
   style="fill:#eddc6e;fill-opacity:1"
   cx="15"
   cy="29.5"
   r="1"
   id="circle33" />
<path
   style="fill:#eddc6e;fill-opacity:1"
   d="M23,35.5h-2c-0.553,0-1-0.447-1-1s0.447-1,1-1h2c0.553,0,1,0.447,1,1S23.553,35.5,23,35.5z"
   id="path33" />
<path
   style="fill:#eddc6e;fill-opacity:1"
   d="M23,38.5h-2c-0.553,0-1-0.447-1-1s0.447-1,1-1h2c0.553,0,1,0.447,1,1S23.553,38.5,23,38.5z"
   id="path34" />
<path
   style="fill:#eddc6e;fill-opacity:1"
   d="M15,35.5h-2c-0.553,0-1-0.447-1-1s0.447-1,1-1h2c0.553,0,1,0.447,1,1S15.553,35.5,15,35.5z"
   id="path35" />
<path
   style="fill:#eddc6e;fill-opacity:1"
   d="M15,38.5h-2c-0.553,0-1-0.447-1-1s0.447-1,1-1h2c0.553,0,1,0.447,1,1S15.553,38.5,15,38.5z"
   id="path36" />
<circle
   style="fill:#eddc6e;fill-opacity:1"
   cx="36"
   cy="29.5"
   r="1"
   id="circle36" />
<circle
   style="fill:#eddc6e;fill-opacity:1"
   cx="33"
   cy="29.5"
   r="1"
   id="circle37" />
<circle
   style="fill:#eddc6e;fill-opacity:1"
   cx="43"
   cy="39.5"
   r="1"
   id="circle38" />
<circle
   style="fill:#eddc6e;fill-opacity:1"
   cx="46"
   cy="39.5"
   r="1"
   id="circle39" />
<circle
   style="fill:#eddc6e;fill-opacity:1"
   cx="49"
   cy="39.5"
   r="1"
   id="circle40" />
<circle
   style="fill:#eddc6e;fill-opacity:1"
   cx="52"
   cy="39.5"
   r="1"
   id="circle41" />
<circle
   style="fill:#eddc6e;fill-opacity:1"
   cx="30"
   cy="29.5"
   r="1"
   id="circle42" />
<path
   style="fill:#eddc6e;fill-opacity:1"
   d="M38,35.5h-2c-0.553,0-1-0.447-1-1s0.447-1,1-1h2c0.553,0,1,0.447,1,1S38.553,35.5,38,35.5z"
   id="path42" />
<path
   style="fill:#eddc6e;fill-opacity:1"
   d="M38,38.5h-2c-0.553,0-1-0.447-1-1s0.447-1,1-1h2c0.553,0,1,0.447,1,1S38.553,38.5,38,38.5z"
   id="path43" />
<path
   style="fill:#eddc6e;fill-opacity:1"
   d="M30,35.5h-2c-0.553,0-1-0.447-1-1s0.447-1,1-1h2c0.553,0,1,0.447,1,1S30.553,35.5,30,35.5z"
   id="path44" />
<path
   style="fill:#eddc6e;fill-opacity:1"
   d="M30,38.5h-2c-0.553,0-1-0.447-1-1s0.447-1,1-1h2c0.553,0,1,0.447,1,1S30.553,38.5,30,38.5z"
   id="path45" />
<rect
   x="28"
   y="18.5"
   style="fill:#414141;fill-opacity:1"
   width="10"
   height="6"
   id="rect45" />
<rect
   x="13"
   y="18.5"
   style="fill:#414141;fill-opacity:1"
   width="10"
   height="6"
   id="rect46" />
<rect
   x="15"
   y="32.5"
   style="fill:#414141;fill-opacity:1"
   width="6"
   height="7"
   id="rect47" />
<rect
   x="30"
   y="32.5"
   style="fill:#414141;fill-opacity:1"
   width="6"
   height="7"
   id="rect48" />
</svg>
