<?xml version="1.0" encoding="UTF-8" standalone="no"?>
<!-- Uploaded to: SVG Repo, www.svgrepo.com, Generator: SVG Repo Mixer Tools -->

<svg
   height="800"
   width="598.02032"
   version="1.1"
   id="_x35_"
   viewBox="0 0 382.73301 512"
   xml:space="preserve"
   sodipodi:docname="speaker.svg"
   inkscape:version="1.4.2 (ebf0e940, 2025-05-08)"
   xmlns:inkscape="http://www.inkscape.org/namespaces/inkscape"
   xmlns:sodipodi="http://sodipodi.sourceforge.net/DTD/sodipodi-0.dtd"
   xmlns="http://www.w3.org/2000/svg"
   xmlns:svg="http://www.w3.org/2000/svg"><defs
   id="defs28" /><sodipodi:namedview
   id="namedview28"
   pagecolor="#505050"
   bordercolor="#eeeeee"
   borderopacity="1"
   inkscape:showpageshadow="0"
   inkscape:pageopacity="0"
   inkscape:pagecheckerboard="0"
   inkscape:deskcolor="#505050"
   inkscape:zoom="0.64813852"
   inkscape:cx="231.43201"
   inkscape:cy="336.34785"
   inkscape:window-width="1560"
   inkscape:window-height="879"
   inkscape:window-x="0"
   inkscape:window-y="25"
   inkscape:window-maximized="0"
   inkscape:current-layer="_x35_" />
<g
   id="g28">
	<g
   id="g27">
		<path
   style="fill:#43575b"
   d="m 382.724,35.639 v 440.697 c 0,19.647 -16.062,35.639 -35.639,35.639 H 35.639 c -1.723,0 -3.447,-0.138 -5.17,-0.414 -0.827,-0.138 -1.654,-0.276 -2.482,-0.483 -0.827,-0.138 -1.654,-0.345 -2.482,-0.62 -0.827,-0.276 -1.654,-0.552 -2.413,-0.827 -0.62,-0.207 -1.172,-0.414 -1.792,-0.69 -0.896,-0.414 -1.723,-0.827 -2.619,-1.31 -1.861,-1.034 -3.723,-2.205 -5.377,-3.584 -0.138,-0.138 -0.276,-0.207 -0.414,-0.345 -0.827,-0.69 -1.654,-1.448 -2.413,-2.206 -0.759,-0.759 -1.517,-1.586 -2.206,-2.413 -0.759,-0.896 -1.517,-1.861 -2.137,-2.826 -0.69,-0.965 -1.241,-1.93 -1.792,-2.964 -0.483,-0.827 -0.896,-1.723 -1.31,-2.62 -0.276,-0.552 -0.483,-1.172 -0.69,-1.792 -0.62,-1.585 -1.103,-3.24 -1.447,-4.895 C 0.688,483.297 0.55,482.539 0.481,481.78 0.343,481.229 0.274,480.608 0.205,479.988 0.069,478.818 0,477.577 0,476.336 V 35.639 C 0,16.061 16.062,0 35.639,0 h 311.445 c 2.827,0 5.584,0.345 8.272,1.034 12.96,3.102 23.231,13.373 26.333,26.333 0.69,2.688 1.035,5.446 1.035,8.272 z"
   id="path1" />
		<path
   style="opacity:0.1;fill:#040000"
   d="m 382.724,466.203 v 10.133 c 0,19.647 -16.062,35.639 -35.639,35.639 H 35.639 c -1.723,0 -3.447,-0.138 -5.17,-0.414 -0.827,-0.138 -1.654,-0.276 -2.482,-0.483 -0.827,-0.138 -1.654,-0.345 -2.482,-0.62 -0.827,-0.276 -1.654,-0.552 -2.413,-0.827 -0.62,-0.207 -1.172,-0.414 -1.792,-0.69 -0.896,-0.414 -1.723,-0.827 -2.619,-1.31 -1.861,-1.034 -3.723,-2.205 -5.377,-3.584 -0.138,-0.138 -0.276,-0.207 -0.414,-0.345 -0.827,-0.69 -1.654,-1.448 -2.413,-2.206 -0.759,-0.759 -1.517,-1.586 -2.206,-2.413 -0.759,-0.896 -1.517,-1.861 -2.137,-2.826 -0.69,-0.965 -1.241,-1.93 -1.792,-2.964 -0.483,-0.827 -0.896,-1.723 -1.31,-2.62 -0.276,-0.552 -0.483,-1.172 -0.69,-1.792 C 1.653,487.296 1.17,485.71 0.895,483.986 0.688,483.297 0.55,482.539 0.481,481.78 0.343,481.229 0.274,480.608 0.205,479.988 0.069,478.818 0,477.577 0,476.336 v -10.133 c 0,19.646 16.062,35.639 35.639,35.639 h 311.445 c 19.578,0 35.64,-15.993 35.64,-35.639 z"
   id="path2" />
		<path
   style="opacity:0.1;fill:#040000"
   d="m 191.363,396.638 c -40.731,0 -79.682,-14.581 -110.319,-41.179 -4.143,2.356 -8.846,3.615 -13.696,3.615 -15.315,0 -27.772,-12.454 -27.772,-27.769 0,-6.557 2.37,-12.898 6.527,-17.86 -15.143,-25.77 -23.121,-55.1 -23.121,-85.185 0,-29.762 7.819,-58.823 22.663,-84.397 -3.908,-4.874 -6.069,-10.939 -6.069,-17.314 0,-15.315 12.457,-27.769 27.772,-27.769 4.457,0 8.829,1.084 12.747,3.11 30.775,-27.136 70.072,-42.014 111.268,-42.014 41.451,0 80.921,15.032 111.773,42.458 4.113,-2.316 8.778,-3.554 13.578,-3.554 15.315,0 27.769,12.454 27.769,27.769 0,6.752 -2.491,13.235 -6.86,18.25 14.487,25.352 22.121,54.084 22.121,83.462 0,29.715 -7.789,58.715 -22.585,84.263 4.665,5.069 7.324,11.74 7.324,18.782 0,15.315 -12.454,27.769 -27.769,27.769 -5.197,0 -10.179,-1.42 -14.5,-4.079 -30.712,26.893 -69.844,41.642 -110.851,41.642 z"
   id="path3" />
		<g
   id="g16">
			<path
   style="fill:#65747c"
   d="m 320.515,309.077 c 14.69,-23.426 23.193,-51.127 23.193,-80.818 0,-29.32 -8.29,-56.7 -22.644,-79.939 4.99,-3.576 8.251,-9.42 8.251,-16.014 0,-10.86 -8.835,-19.696 -19.695,-19.696 -5.134,0 -9.814,1.976 -13.324,5.206 C 268.974,91.85 232.03,75.913 191.362,75.913 c -40.367,0 -77.061,15.707 -104.321,41.333 -3.428,-2.89 -7.85,-4.636 -12.674,-4.636 -10.86,0 -19.695,8.835 -19.695,19.696 0,6.209 2.891,11.752 7.393,15.365 -14.601,23.377 -23.049,50.994 -23.049,80.588 0,29.951 8.649,57.879 23.578,81.435 -4.806,3.595 -7.922,9.33 -7.922,15.78 0,10.86 8.835,19.695 19.695,19.695 5.157,0 9.855,-1.995 13.37,-5.25 27.187,25.243 63.6,40.686 103.625,40.686 40.341,0 77.013,-15.686 104.267,-41.284 3.572,3.608 8.523,5.848 13.99,5.848 10.86,0 19.695,-8.835 19.695,-19.695 10e-4,-6.834 -3.499,-12.864 -8.799,-16.397 z"
   id="path4" />
			<path
   style="fill:#e2e2c5"
   d="m 191.362,330.103 c -56.157,0 -101.844,-45.687 -101.844,-101.844 0,-56.157 45.687,-101.844 101.844,-101.844 56.157,0 101.844,45.687 101.844,101.844 0,56.157 -45.687,101.844 -101.844,101.844 z"
   id="path5" />
			<path
   style="fill:#65747c"
   d="m 191.362,271.185 c -23.669,0 -42.926,-19.257 -42.926,-42.926 0,-23.669 19.257,-42.926 42.926,-42.926 23.669,0 42.926,19.257 42.926,42.926 0,23.669 -19.257,42.926 -42.926,42.926 z"
   id="path6" />
			<path
   style="fill:#9a9978"
   d="m 191.362,262.768 c -19.028,0 -34.509,-15.481 -34.509,-34.509 0,-19.029 15.481,-34.509 34.509,-34.509 19.028,0 34.509,15.481 34.509,34.509 0,19.028 -15.481,34.509 -34.509,34.509 z"
   id="path7" />
			<g
   id="g11">
				<path
   style="fill:#cbcbcb"
   d="m 74.367,144.78 c -6.878,0 -12.474,-5.596 -12.474,-12.474 0,-6.878 5.596,-12.474 12.474,-12.474 6.878,0 12.474,5.596 12.474,12.474 0,6.878 -5.596,12.474 -12.474,12.474 z"
   id="path8" />
				<path
   style="fill:#cbcbcb"
   d="m 309.619,144.78 c -6.878,0 -12.474,-5.596 -12.474,-12.474 0,-6.878 5.596,-12.474 12.474,-12.474 6.878,0 12.474,5.596 12.474,12.474 0,6.878 -5.596,12.474 -12.474,12.474 z"
   id="path9" />
				<path
   style="fill:#cbcbcb"
   d="m 74.367,337.948 c -6.878,0 -12.474,-5.596 -12.474,-12.474 0,-6.878 5.596,-12.474 12.474,-12.474 6.878,0 12.474,5.596 12.474,12.474 0,6.878 -5.596,12.474 -12.474,12.474 z"
   id="path10" />
				<path
   style="fill:#cbcbcb"
   d="m 309.619,337.948 c -6.878,0 -12.474,-5.596 -12.474,-12.474 0,-6.878 5.596,-12.474 12.474,-12.474 6.878,0 12.474,5.596 12.474,12.474 0,6.878 -5.596,12.474 -12.474,12.474 z"
   id="path11" />
			</g>
			<g
   id="g15">
				<path
   style="fill:#fdf3dc"
   d="m 74.367,137.295 c -2.751,0 -4.989,-2.238 -4.989,-4.99 0,-2.751 2.238,-4.99 4.989,-4.99 2.751,0 4.99,2.238 4.99,4.99 0,2.752 -2.239,4.99 -4.99,4.99 z"
   id="path12" />
				<path
   style="fill:#fdf3dc"
   d="m 309.619,137.295 c -2.751,0 -4.99,-2.238 -4.99,-4.99 0,-2.751 2.238,-4.99 4.99,-4.99 2.751,0 4.99,2.238 4.99,4.99 0,2.752 -2.238,4.99 -4.99,4.99 z"
   id="path13" />
				<path
   style="fill:#fdf3dc"
   d="m 74.367,330.463 c -2.751,0 -4.989,-2.238 -4.989,-4.99 0,-2.751 2.238,-4.99 4.989,-4.99 2.751,0 4.99,2.238 4.99,4.99 0,2.752 -2.239,4.99 -4.99,4.99 z"
   id="path14" />
				<path
   style="fill:#fdf3dc"
   d="m 309.619,330.463 c -2.751,0 -4.99,-2.238 -4.99,-4.99 0,-2.751 2.238,-4.99 4.99,-4.99 2.751,0 4.99,2.238 4.99,4.99 0,2.752 -2.238,4.99 -4.99,4.99 z"
   id="path15" />
			</g>
		</g>
		
		<path
   style="opacity:0.2;fill:#040000"
   d="m 293.506,228.559 c 0,2.963 -0.127,5.901 -0.38,8.796 -4.466,-52.229 -48.405,-93.357 -101.765,-93.357 -53.36,0 -97.299,41.128 -101.765,93.357 -0.253,-2.896 -0.38,-5.833 -0.38,-8.796 0,-56.323 45.822,-102.145 102.144,-102.145 56.325,0 102.146,45.822 102.146,102.145 z"
   id="path26" />
	</g>
	<path
   style="opacity:0.1;fill:#040000"
   d="m 347.085,512 c 14.702,0 27.403,-9.026 32.834,-21.809 0.303,-0.713 0.441,-1.5 0.698,-2.235 0.511,-1.462 1.07,-2.904 1.388,-4.445 0.143,-0.692 0.116,-1.436 0.218,-2.141 0.238,-1.654 0.51,-3.3 0.51,-5.017 V 476.349 466.221 45.788 35.657 c 0,-4.902 -1.003,-9.581 -2.813,-13.842 -1.433,-3.373 -3.493,-6.381 -5.841,-9.134 C 371.977,10.217 369.668,7.938 366.98,6.119 366.619,5.875 366.198,5.723 365.827,5.491 360.361,2.075 353.971,0.01 347.086,0.01 H 191.362 V 512 Z"
   id="path27" />
</g>
</svg>
